<svg width="77" height="77" viewBox="0 0 77 77" fill="none" xmlns="http://www.w3.org/2000/svg">
<path d="M38.5 76C59.2112 76 76 59.2112 76 38.5C76 17.7888 59.2112 1 38.5 1C17.7888 1 1 17.7888 1 38.5C1 59.2112 17.7888 76 38.5 76Z" stroke="#FF0000" stroke-width="1.5" stroke-linecap="round" stroke-linejoin="round"/>
<path d="M38.53 32.905C37.0382 32.905 35.6074 33.4976 34.5526 34.5525C33.4977 35.6074 32.905 37.0382 32.905 38.53C32.905 40.0218 33.4977 41.4526 34.5526 42.5075C35.6074 43.5624 37.0382 44.155 38.53 44.155C40.0219 44.155 41.4526 43.5624 42.5075 42.5075C43.5624 41.4526 44.155 40.0218 44.155 38.53C44.155 37.0382 43.5624 35.6074 42.5075 34.5525C41.4526 33.4976 40.0219 32.905 38.53 32.905ZM38.53 32.905V19.75M49.8063 49.825L42.4975 42.52" stroke="#FF0000" stroke-width="1.5" stroke-linecap="round" stroke-linejoin="round"/>
</svg>
