<svg width="77" height="65" viewBox="0 0 77 65" fill="none" xmlns="http://www.w3.org/2000/svg">
<path d="M13.5 29.0214C13.5 20.2166 13.5 15.8111 17.1625 13.0775C20.8208 10.3408 26.7167 10.3408 38.5 10.3408H51C62.7833 10.3408 68.6792 10.3408 72.3375 13.0775C76 15.8111 76 20.2166 76 29.0214V44.5885C76 53.3933 76 57.7988 72.3375 60.5324C68.6792 63.2691 62.7833 63.2691 51 63.2691H38.5C26.7167 63.2691 20.8208 63.2691 17.1625 60.5324C13.5 57.7988 13.5 53.3933 13.5 44.5885V29.0214Z" stroke="#FF0000" stroke-width="1.5"/>
<path d="M13.5 53.9283C10.1848 53.9283 7.00537 52.9442 4.66117 51.1926C2.31696 49.4409 1 47.0652 1 44.588V25.9074C1 14.1667 1 8.29476 5.88333 4.64894C10.7667 1.00311 18.6208 1 34.3333 1H51C54.3152 1 57.4946 1.98406 59.8388 3.73571C62.183 5.48735 63.5 7.86309 63.5 10.3403" stroke="#FF0000" stroke-width="1.5"/>
</svg>
