<svg width="75" height="75" viewBox="0 0 75 75" fill="none" xmlns="http://www.w3.org/2000/svg">
<path d="M53.9125 39.031C53.025 46.4216 48.1844 49.3748 46.0937 51.5185C44 53.6685 44.375 54.0966 44.5156 57.2498C44.5391 57.6399 44.4824 58.0307 44.3491 58.398C44.2158 58.7654 44.0087 59.1016 43.7405 59.3859C43.4723 59.6702 43.1487 59.8966 42.7898 60.051C42.4308 60.2055 42.0439 60.2848 41.6531 60.2841H33.3469C32.9563 60.2835 32.57 60.2032 32.2115 60.0483C31.853 59.8934 31.5298 59.6671 31.2616 59.3831C30.9934 59.0992 30.786 58.7636 30.6518 58.3968C30.5176 58.03 30.4596 57.6397 30.4812 57.2498C30.4812 54.156 30.7687 53.4373 28.9062 51.5185C26.5312 49.1435 20.9437 45.7904 20.9437 36.5685C20.9295 34.2779 21.3899 32.0091 22.296 29.9053C23.202 27.8014 24.5341 25.9081 26.2083 24.3446C27.8824 22.7811 29.8623 21.5814 32.0231 20.8211C34.1839 20.0608 36.4788 19.7563 38.7631 19.9269C41.0474 20.0975 43.2716 20.7395 45.2955 21.8124C47.3193 22.8853 49.099 24.3658 50.5223 26.1607C51.9456 27.9555 52.9816 30.0257 53.5651 32.2408C54.1486 34.4559 54.2669 36.7679 53.9125 39.031Z" stroke="#FF0000" stroke-width="1.5" stroke-linecap="round" stroke-linejoin="round"/>
<path d="M32.6875 60.1121V64.8371C32.6875 66.1277 33.4062 67.1871 34.2906 67.1871H40.7062C41.5969 67.1871 42.3125 66.1246 42.3125 64.8371V60.1121M35.0625 27.1746C33.2173 27.1754 31.448 27.909 30.1435 29.2141C28.839 30.5191 28.1063 32.2888 28.1063 34.134M60.4125 37.1996H66.1438M54.6438 18.4121L58.7094 14.3465M57.7688 53.1246L61.8344 57.1871M37.5 7.42773V12.0621M16.375 14.3434L20.4125 18.4121M13.25 57.1871L17.2875 53.1246M14.5875 37.1996H8.85938" stroke="#FF0000" stroke-width="1.5" stroke-linecap="round" stroke-linejoin="round"/>
</svg>
