<svg width="75" height="75" viewBox="0 0 75 75" fill="none" xmlns="http://www.w3.org/2000/svg">
<path d="M46.875 57.1875C45.4687 57.1875 44.5312 56.7188 43.125 56.25L37.5 53.9062L31.875 56.25C30.9375 56.7188 29.5312 57.1875 28.125 57.1875C27.1875 57.1875 26.7187 57.1875 25.7812 56.7188L23.4375 75L37.5 65.625L51.5625 75L48.75 56.7188C48.2812 57.1875 47.3437 57.1875 46.875 57.1875ZM60.4687 27.6562C60 26.7188 60 25.3125 60.4687 24.375L63.2812 18.75C64.2187 16.875 63.2812 14.5312 60.9375 13.5938L54.8437 11.25C53.9062 10.7812 52.9687 9.84375 52.5 8.90625L50.1562 2.8125C49.6875 0.9375 48.2812 0 46.875 0C46.4062 0 45.4687 0 45 0.46875L38.9062 3.28125H37.5C37.0312 3.28125 36.5625 3.28125 36.0937 2.8125L30 0.46875C29.5312 0 28.5937 0 28.125 0C26.7187 0 25.3125 0.9375 24.375 2.34375L22.0312 8.90625C22.0312 9.84375 21.0937 10.7812 20.1562 11.25L13.5937 13.5938C11.7187 14.0625 10.7812 16.4062 11.7187 18.75L14.5312 24.8438C15 25.7812 15 27.1875 14.5312 28.125L11.7187 33.75C10.7812 35.625 11.7187 37.9688 14.0625 38.9062L20.1562 41.25C21.0937 41.7188 22.0312 42.6562 22.5 43.5938L24.8437 49.6875C25.3125 51.5625 26.7187 52.5 28.125 52.5C28.5937 52.5 29.0625 52.5 29.5312 52.0312L35.625 49.2188C36.0937 49.2188 36.5625 48.75 37.0312 48.75C37.5 48.75 37.9687 48.75 38.4375 49.2188L44.5312 52.0312C45 52.5 45.4687 52.5 45.9375 52.5C47.3437 52.5 48.75 51.5625 49.6875 50.1562L52.0312 44.0625C52.5 43.125 53.4375 42.1875 54.375 41.7188L60.4687 39.375C62.3437 38.4375 63.75 36.0938 62.8125 34.2188L60.4687 27.6562ZM37.5 45C27.1875 45 18.75 36.5625 18.75 26.25C18.75 15.9375 27.1875 7.5 37.5 7.5C47.8125 7.5 56.25 15.9375 56.25 26.25C56.25 36.5625 47.8125 45 37.5 45Z" fill="#FF0000"/>
<path d="M51.5625 26.25C51.5625 29.9796 50.0809 33.5565 47.4437 36.1937C44.8065 38.8309 41.2296 40.3125 37.5 40.3125C33.7704 40.3125 30.1935 38.8309 27.5563 36.1937C24.9191 33.5565 23.4375 29.9796 23.4375 26.25C23.4375 22.5204 24.9191 18.9435 27.5563 16.3063C30.1935 13.6691 33.7704 12.1875 37.5 12.1875C41.2296 12.1875 44.8065 13.6691 47.4437 16.3063C50.0809 18.9435 51.5625 22.5204 51.5625 26.25Z" fill="#FF0000"/>
</svg>
